<svg width="11" height="11" viewBox="0 0 11 11" fill="none" xmlns="http://www.w3.org/2000/svg">
<path d="M4.125 4.125H4.8125V8.25H4.125V4.125Z" fill="white"/>
<path d="M6.1875 4.125H6.875V8.25H6.1875V4.125Z" fill="white"/>
<path d="M1.375 2.0625V2.75H2.0625V9.625C2.0625 9.80734 2.13493 9.9822 2.26386 10.1111C2.3928 10.2401 2.56766 10.3125 2.75 10.3125H8.25C8.43234 10.3125 8.6072 10.2401 8.73614 10.1111C8.86507 9.9822 8.9375 9.80734 8.9375 9.625V2.75H9.625V2.0625H1.375ZM2.75 9.625V2.75H8.25V9.625H2.75Z" fill="white"/>
<path d="M4.125 0.6875H6.875V1.375H4.125V0.6875Z" fill="white"/>
</svg>
