<svg width="22" height="22" viewBox="0 0 22 22" fill="none" xmlns="http://www.w3.org/2000/svg">
<path d="M10.9999 7.15001V2.20001H6.0499C5.6123 2.20001 5.19261 2.37385 4.88318 2.68329C4.57374 2.99272 4.3999 3.4124 4.3999 3.85001V18.15C4.3999 18.5876 4.57374 19.0073 4.88318 19.3167C5.19261 19.6262 5.6123 19.8 6.0499 19.8H15.9499C16.3875 19.8 16.8072 19.6262 17.1166 19.3167C17.4261 19.0073 17.5999 18.5876 17.5999 18.15V8.80001H12.6499C12.2123 8.80001 11.7926 8.62617 11.4832 8.31674C11.1737 8.0073 10.9999 7.58762 10.9999 7.15001ZM6.5999 11.55C6.5999 11.4041 6.65785 11.2642 6.76099 11.1611C6.86414 11.058 7.00403 11 7.1499 11C7.29577 11 7.43567 11.058 7.53881 11.1611C7.64196 11.2642 7.6999 11.4041 7.6999 11.55C7.6999 11.6959 7.64196 11.8358 7.53881 11.9389C7.43567 12.0421 7.29577 12.1 7.1499 12.1C7.00403 12.1 6.86414 12.0421 6.76099 11.9389C6.65785 11.8358 6.5999 11.6959 6.5999 11.55ZM6.5999 13.75C6.5999 13.6041 6.65785 13.4642 6.76099 13.3611C6.86414 13.258 7.00403 13.2 7.1499 13.2C7.29577 13.2 7.43567 13.258 7.53881 13.3611C7.64196 13.4642 7.6999 13.6041 7.6999 13.75C7.6999 13.8959 7.64196 14.0358 7.53881 14.1389C7.43567 14.2421 7.29577 14.3 7.1499 14.3C7.00403 14.3 6.86414 14.2421 6.76099 14.1389C6.65785 14.0358 6.5999 13.8959 6.5999 13.75ZM6.5999 15.95C6.5999 15.8041 6.65785 15.6642 6.76099 15.5611C6.86414 15.458 7.00403 15.4 7.1499 15.4C7.29577 15.4 7.43567 15.458 7.53881 15.5611C7.64196 15.6642 7.6999 15.8041 7.6999 15.95C7.6999 16.0959 7.64196 16.2358 7.53881 16.3389C7.43567 16.4421 7.29577 16.5 7.1499 16.5C7.00403 16.5 6.86414 16.4421 6.76099 16.3389C6.65785 16.2358 6.5999 16.0959 6.5999 15.95ZM8.7999 11.55C8.7999 11.4041 8.85785 11.2642 8.96099 11.1611C9.06414 11.058 9.20403 11 9.3499 11H14.8499C14.9958 11 15.1357 11.058 15.2388 11.1611C15.342 11.2642 15.3999 11.4041 15.3999 11.55C15.3999 11.6959 15.342 11.8358 15.2388 11.9389C15.1357 12.0421 14.9958 12.1 14.8499 12.1H9.3499C9.20403 12.1 9.06414 12.0421 8.96099 11.9389C8.85785 11.8358 8.7999 11.6959 8.7999 11.55ZM8.7999 13.75C8.7999 13.6041 8.85785 13.4642 8.96099 13.3611C9.06414 13.258 9.20403 13.2 9.3499 13.2H14.8499C14.9958 13.2 15.1357 13.258 15.2388 13.3611C15.342 13.4642 15.3999 13.6041 15.3999 13.75C15.3999 13.8959 15.342 14.0358 15.2388 14.1389C15.1357 14.2421 14.9958 14.3 14.8499 14.3H9.3499C9.20403 14.3 9.06414 14.2421 8.96099 14.1389C8.85785 14.0358 8.7999 13.8959 8.7999 13.75ZM8.7999 15.95C8.7999 15.8041 8.85785 15.6642 8.96099 15.5611C9.06414 15.458 9.20403 15.4 9.3499 15.4H14.8499C14.9958 15.4 15.1357 15.458 15.2388 15.5611C15.342 15.6642 15.3999 15.8041 15.3999 15.95C15.3999 16.0959 15.342 16.2358 15.2388 16.3389C15.1357 16.4421 14.9958 16.5 14.8499 16.5H9.3499C9.20403 16.5 9.06414 16.4421 8.96099 16.3389C8.85785 16.2358 8.7999 16.0959 8.7999 15.95ZM12.0999 7.15001V2.47501L17.3249 7.70001H12.6499C12.504 7.70001 12.3641 7.64207 12.261 7.53892C12.1578 7.43578 12.0999 7.29588 12.0999 7.15001Z" fill="white"/>
</svg>
