<svg width="33" height="37" viewBox="0 0 33 37" fill="none" xmlns="http://www.w3.org/2000/svg">
<path d="M9.10013 17.2667H7.8668V19.7333H9.10013V17.2667ZM23.9001 19.7333H25.1335V17.2667H23.9001V19.7333ZM9.10013 9.86667H7.8668V12.3333H9.10013V9.86667ZM14.0335 12.3333H15.2668V9.86667H14.0335V12.3333ZM23.9001 1.23333L24.7733 0.360133L24.4107 0H23.9001V1.23333ZM31.3001 8.63333H32.5335V8.12273L32.1733 7.76013L31.3001 8.63333ZM17.7335 27.1333L16.8603 28.0065L17.7335 27.1333ZM16.5001 28.3667L17.0527 29.4693L17.1513 29.4199L17.2401 29.3533L16.5001 28.3667ZM9.10013 19.7333H23.9001V17.2667H9.10013V19.7333ZM9.10013 12.3333H14.0335V9.86667H9.10013V12.3333ZM28.8335 34.5333H4.1668V37H28.8335V34.5333ZM2.93346 33.3V3.7H0.466797V33.3H2.93346ZM4.1668 2.46667H23.9001V0H4.1668V2.46667ZM30.0668 8.63333V33.3H32.5335V8.63333H30.0668ZM23.0269 2.10653L30.4269 9.50653L32.1733 7.76013L24.7733 0.360133L23.0269 2.10653ZM4.1668 34.5333C3.8397 34.5333 3.52599 34.4034 3.2947 34.1721C3.0634 33.9408 2.93346 33.6271 2.93346 33.3H0.466797C0.466797 34.2813 0.856617 35.2224 1.5505 35.9163C2.24439 36.6102 3.1855 37 4.1668 37V34.5333ZM28.8335 37C29.8148 37 30.7559 36.6102 31.4498 35.9163C32.1436 35.2224 32.5335 34.2813 32.5335 33.3H30.0668C30.0668 33.6271 29.9369 33.9408 29.7056 34.1721C29.4743 34.4034 29.1606 34.5333 28.8335 34.5333V37ZM2.93346 3.7C2.93346 3.3729 3.0634 3.0592 3.2947 2.8279C3.52599 2.59661 3.8397 2.46667 4.1668 2.46667V0C3.1855 0 2.24439 0.38982 1.5505 1.0837C0.856617 1.77759 0.466797 2.7187 0.466797 3.7H2.93346ZM11.5027 28.7564C11.7765 27.935 12.5559 27.1728 13.55 26.9064C14.4799 26.6573 15.6763 26.8201 16.8603 28.0065L18.6067 26.2601C16.8307 24.4841 14.7365 24.0327 12.9111 24.5236C11.1524 24.9972 9.71186 26.3317 9.1618 27.9769L11.5051 28.7564H11.5027ZM16.8603 28.0065C16.9297 28.0739 16.9947 28.1456 17.0551 28.2211L19.0038 26.7066C18.8807 26.5505 18.7481 26.4022 18.6067 26.2626L16.8603 28.0065ZM17.0551 28.2211C17.2475 28.4678 17.2031 28.5467 17.2105 28.4925C17.2155 28.4579 17.2253 28.5147 17.0773 28.6479C16.8641 28.8261 16.6222 28.9671 16.362 29.0647C16.0493 29.1905 15.7232 29.2799 15.3901 29.3311C15.1869 29.3698 14.9791 29.3781 14.7735 29.3558C14.7315 29.3459 14.8179 29.3558 14.9461 29.4471C15.1034 29.5685 15.219 29.7358 15.2769 29.9258C15.3348 30.1159 15.3322 30.3193 15.2693 30.5077C15.2553 30.5486 15.2362 30.5876 15.2125 30.6237C15.2076 30.6286 15.2495 30.5743 15.3901 30.4584C15.6713 30.2315 16.1893 29.9009 17.0527 29.4717L15.9476 27.2641C15.0177 27.7278 14.3196 28.1521 13.8411 28.5393C13.5984 28.7287 13.3826 28.9503 13.1997 29.1979C12.9671 29.5093 12.8455 29.8897 12.8544 30.2783C12.8791 30.8111 13.1677 31.2033 13.4834 31.4327C13.7621 31.6399 14.0705 31.7287 14.2974 31.7756C14.7587 31.8669 15.2841 31.8422 15.7601 31.7707C16.6975 31.6276 17.9111 31.2231 18.7374 30.4732C19.1666 30.081 19.5736 29.5186 19.6599 28.7811C19.7487 28.0263 19.4774 27.3183 19.0013 26.7091L17.0527 28.2211H17.0551ZM17.2401 29.3533C17.6348 29.0515 18.0636 28.7973 18.5179 28.5961L17.5386 26.3317C16.9466 26.5882 16.3546 26.936 15.7601 27.38L17.2401 29.3533ZM18.5179 28.5961C20.1212 27.9029 21.5543 28.268 23.022 28.9661C23.392 29.1437 23.7521 29.3361 24.1172 29.5334C24.4724 29.7258 24.8473 29.9305 25.2025 30.1131C25.8833 30.4559 26.7269 30.8333 27.6001 30.8333V28.3667C27.3683 28.3667 26.9884 28.2507 26.3175 27.9128C26.0017 27.75 25.6712 27.5675 25.2913 27.3627C24.9213 27.1629 24.5119 26.9434 24.0827 26.7411C22.3609 25.9197 20.1089 25.2217 17.5386 26.3317L18.5179 28.5961Z" fill="white"/>
</svg>
