<svg width="22" height="23" viewBox="0 0 22 23" fill="none" xmlns="http://www.w3.org/2000/svg">
<path d="M0 7.67617C0.000335715 9.24688 0.552357 10.7689 1.56201 11.9829C2.57167 13.1968 3.97649 14.0277 5.53713 14.3339C5.62601 13.3614 5.87882 12.4104 6.28513 11.5201C5.08063 11.1183 4.3065 10.2062 4.125 8.91134H3.4375V8.33312H4.07825V7.74404C4.07825 7.6816 4.07825 7.61781 4.08375 7.5608H3.4375V6.98122H4.14012C4.4495 5.28728 5.79288 4.28286 7.81138 4.28286C8.24588 4.28286 8.62263 4.32494 8.9375 4.39823V5.39315C8.56974 5.31238 8.19356 5.27502 7.81687 5.28185C6.55325 5.28185 5.70213 5.91436 5.43262 6.98122H8.0685V7.5608H5.346C5.34188 7.62324 5.34188 7.69246 5.34188 7.76033V8.33312H8.0685V8.91269H5.40375C5.566 9.7298 6.04725 10.3107 6.78562 10.5808C7.50962 9.39721 8.50529 8.39811 9.69234 7.66415C10.8794 6.9302 12.2246 6.48192 13.6194 6.35549C13.2822 4.70704 12.3372 3.24079 10.9675 2.24078C9.59774 1.24077 7.90079 0.778161 6.20532 0.942572C4.50985 1.10698 2.93654 1.88671 1.79013 3.13071C0.643724 4.37471 0.00582584 5.99445 0 7.67617H0ZM22 15.1415C22 17.1214 21.2032 19.0202 19.785 20.4202C18.3668 21.8202 16.4432 22.6068 14.4375 22.6068C12.4318 22.6068 10.5082 21.8202 9.09 20.4202C7.67176 19.0202 6.875 17.1214 6.875 15.1415C6.875 13.1615 7.67176 11.2627 9.09 9.86271C10.5082 8.46269 12.4318 7.67617 14.4375 7.67617C16.4432 7.67617 18.3668 8.46269 19.785 9.86271C21.2032 11.2627 22 13.1615 22 15.1415ZM11.3438 16.9358C11.4386 18.0692 12.3695 18.9515 14.0442 19.056V19.8921H14.7867V19.0506C16.5179 18.9338 17.5312 18.0461 17.5312 16.7567C17.5312 15.5826 16.7571 14.9786 15.3725 14.6664L14.7867 14.5307V12.2558C15.5292 12.3372 16.0023 12.7268 16.115 13.267H17.4185C17.3223 12.1757 16.3474 11.3219 14.7867 11.2283V10.3908H14.0442V11.2446C12.5647 11.3844 11.5583 12.2381 11.5583 13.4462C11.5583 14.5144 12.3062 15.1944 13.552 15.4726L14.0442 15.588V18.0041C13.2825 17.8955 12.7793 17.4937 12.6651 16.9358H11.3438ZM14.0387 14.3637C13.3073 14.2008 12.9113 13.8696 12.9113 13.3702C12.9113 12.8136 13.3389 12.3942 14.0442 12.2721V14.3624H14.0374L14.0387 14.3637ZM14.894 15.7808C15.7809 15.9776 16.1906 16.2965 16.1906 16.8612C16.1906 17.5046 15.6819 17.9471 14.7881 18.0285V15.7563L14.894 15.7808Z" fill="white"/>
</svg>
