<svg width="20" height="20" viewBox="0 0 20 20" fill="none" xmlns="http://www.w3.org/2000/svg">
<path d="M17.7142 9.13502C18.1092 9.65169 18.1092 10.3492 17.7142 10.865C16.47 12.4892 13.485 15.8334 9.99999 15.8334C6.51499 15.8334 3.52999 12.4892 2.28582 10.865C2.09364 10.6176 1.98932 10.3133 1.98932 10C1.98932 9.68676 2.09364 9.38241 2.28582 9.13502C3.52999 7.51085 6.51499 4.16669 9.99999 4.16669C13.485 4.16669 16.47 7.51085 17.7142 9.13502V9.13502Z" stroke="black" stroke-opacity="0.6" stroke-width="1.66667" stroke-linecap="round" stroke-linejoin="round"/>
<path d="M10 12.5C11.3807 12.5 12.5 11.3807 12.5 10C12.5 8.61929 11.3807 7.5 10 7.5C8.61929 7.5 7.5 8.61929 7.5 10C7.5 11.3807 8.61929 12.5 10 12.5Z" stroke="black" stroke-opacity="0.6" stroke-width="1.66667" stroke-linecap="round" stroke-linejoin="round"/>
</svg>
