<svg width="22" height="22" viewBox="0 0 22 22" fill="none" xmlns="http://www.w3.org/2000/svg">
<g clip-path="url(#clip0_36_62)">
<path d="M14.4375 0C10.2575 0 6.875 1.21 6.875 2.75V5.5C2.75 5.6375 0 6.7925 0 8.25V16.5C0 17.9988 3.3825 19.25 7.5625 19.25H7.65462C8.66113 19.25 9.64837 19.1744 10.615 19.03C11.5747 20.8244 13.4943 21.9972 15.6887 21.9972C17.0075 21.9972 18.2898 21.5644 19.339 20.7654C20.3881 19.9664 21.1461 18.8452 21.4967 17.5739C21.7841 17.3003 21.9697 16.9661 22.0014 16.588V2.75C22.0014 1.21 18.6189 0 14.4389 0H14.4375ZM7.5625 6.875C11 6.875 13.75 7.49375 13.75 8.25C13.75 9.00625 11 9.625 7.5625 9.625C4.125 9.625 1.375 9.00625 1.375 8.25C1.375 7.49375 4.125 6.875 7.5625 6.875ZM7.5625 17.875C3.83625 17.875 1.71875 16.8988 1.375 16.5V15.4C3.3399 16.2247 5.46421 16.6 7.59275 16.4986C8.29125 16.4972 9.009 16.4574 9.71575 16.3818C9.65662 16.8919 9.746 17.3608 9.88488 17.8076C9.26338 17.8365 8.55525 17.8778 7.83888 17.8778L7.54875 17.875H7.5625ZM9.72125 15.0012C9.07913 15.0796 8.33525 15.125 7.58175 15.125H7.5625C3.83762 15.125 1.72013 14.1488 1.37638 13.75V12.595C3.33523 13.438 5.45769 13.8326 7.58862 13.75C8.461 13.7485 9.33233 13.6897 10.197 13.574C9.92612 13.9948 9.79688 14.4733 9.72675 14.9696L9.72125 15.0012ZM7.5625 12.375C3.83625 12.375 1.71875 11.3988 1.375 11V9.7625C3.33386 10.6055 5.45632 11.0001 7.58725 10.9175C9.73559 10.9892 11.873 10.5825 13.8449 9.72675L13.7514 10.23C12.7192 10.5771 11.8 11.1966 11.0907 12.023C10.0568 12.2499 8.87562 12.375 7.66562 12.375H7.55975H7.5625ZM15.6887 20.625C14.4452 20.625 13.2526 20.131 12.3733 19.2517C11.494 18.3724 11 17.1798 11 15.9363C11 14.6927 11.494 13.5001 12.3733 12.6208C13.2526 11.7415 14.4452 11.2475 15.6887 11.2475C16.9323 11.2475 18.1249 11.7415 19.0042 12.6208C19.8835 13.5001 20.3775 14.6927 20.3775 15.9363C20.3775 17.1798 19.8835 18.3724 19.0042 19.2517C18.1249 20.131 16.9323 20.625 15.6887 20.625ZM20.625 11C20.3844 11.2296 20.0956 11.4125 19.7766 11.5307C19.3806 11.1952 18.9516 10.8982 18.4869 10.659C19.2461 10.4623 19.9808 10.181 20.6772 9.82025L20.625 11ZM20.625 8.25C20.295 8.67625 18.4113 9.5425 15.125 9.625V8.25H15.1401C17.0596 8.25288 18.9583 7.85235 20.713 7.07438L20.625 8.25ZM20.625 5.5C20.2812 5.95375 18.1637 6.875 14.4375 6.875H14.1213C12.3477 5.96531 10.3821 5.49382 8.38888 5.5H8.25V4.2625C10.2089 5.10546 12.3313 5.50007 14.4622 5.4175C16.6106 5.4892 18.748 5.08248 20.7199 4.22675L20.6264 5.5H20.625ZM14.4375 4.125C11 4.125 8.25 3.50625 8.25 2.75C8.25 1.99375 11 1.375 14.4375 1.375C17.875 1.375 20.625 1.99375 20.625 2.75C20.625 3.50625 17.875 4.125 14.4375 4.125Z" fill="white"/>
</g>
<defs>
<clipPath id="clip0_36_62">
<rect width="22" height="22" fill="white"/>
</clipPath>
</defs>
</svg>
