<svg width="20" height="17" viewBox="0 0 20 17" fill="none" xmlns="http://www.w3.org/2000/svg">
<path d="M19.2105 7.8948C19.1407 7.8948 19.0738 7.92252 19.0244 7.97188C18.9751 8.02123 18.9474 8.08816 18.9474 8.15796C18.9474 8.22775 18.9751 8.29469 19.0244 8.34404C19.0738 8.39339 19.1407 8.42111 19.2105 8.42111C19.3953 8.42111 19.4737 8.49954 19.4737 8.68427V11.8422C19.4737 12.0269 19.3953 12.1053 19.2105 12.1053H15C14.8153 12.1053 14.7368 12.0269 14.7368 11.8422V9.21059C14.7368 9.02585 14.8153 8.94743 15 8.94743H18.1579C18.2277 8.94743 18.2946 8.9197 18.344 8.87035C18.3933 8.821 18.4211 8.75407 18.4211 8.68427V5.52638C18.4211 5.0469 18.1111 4.7369 17.6316 4.7369H1.57895C0.93 4.7369 0.526316 4.33322 0.526316 3.68427C0.526316 3.03532 0.93 2.63164 1.57895 2.63164H4.25053L2.65789 3.1569C2.62388 3.16671 2.5922 3.18328 2.56474 3.20562C2.53729 3.22795 2.51462 3.2556 2.49809 3.2869C2.48157 3.3182 2.47153 3.35252 2.46857 3.38779C2.46562 3.42306 2.46981 3.45857 2.4809 3.49218C2.49198 3.5258 2.50974 3.55683 2.5331 3.58343C2.55646 3.61002 2.58494 3.63163 2.61685 3.64696C2.64875 3.66229 2.68342 3.67102 2.71878 3.67264C2.75414 3.67426 2.78946 3.66873 2.82263 3.65638L12.3589 0.512692C12.3918 0.50184 12.4221 0.484629 12.4483 0.46204C12.4745 0.439451 12.496 0.411927 12.5115 0.381039C12.5271 0.350151 12.5364 0.316505 12.5389 0.282021C12.5414 0.247537 12.5372 0.212891 12.5263 0.18006C12.5155 0.14723 12.4983 0.116858 12.4757 0.0906793C12.4531 0.0645005 12.4256 0.0430273 12.3947 0.0274857C12.3638 0.0119441 12.3301 0.00263846 12.2956 0.000100111C12.2612 -0.00243824 12.2265 0.0018404 12.1937 0.0126917L5.82526 2.11269C5.81316 2.11059 5.80211 2.10532 5.78947 2.10532H1.57895C0.634737 2.10532 0 2.74006 0 3.68427V15.2632C0 16.2074 0.634737 16.8422 1.57895 16.8422H17.6316C18.1111 16.8422 18.4211 16.5322 18.4211 16.0527V13.4211C18.4211 13.3513 18.3933 13.2844 18.344 13.235C18.2946 13.1857 18.2277 13.158 18.1579 13.158C18.0881 13.158 18.0212 13.1857 17.9718 13.235C17.9225 13.2844 17.8947 13.3513 17.8947 13.4211V16.0527C17.8947 16.2374 17.8163 16.3159 17.6316 16.3159H1.57895C0.93 16.3159 0.526316 15.9122 0.526316 15.2632V4.90111C0.796316 5.12901 1.15368 5.26322 1.57895 5.26322H17.6316C17.8163 5.26322 17.8947 5.34164 17.8947 5.52638V8.42111H15C14.5205 8.42111 14.2105 8.73111 14.2105 9.21059V11.8422C14.2105 12.3216 14.5205 12.6316 15 12.6316H19.2105C19.69 12.6316 20 12.3216 20 11.8422V8.68427C20 8.2048 19.69 7.8948 19.2105 7.8948Z" fill="black" fill-opacity="0.8"/>
</svg>
