<svg width="22" height="22" viewBox="0 0 22 22" fill="none" xmlns="http://www.w3.org/2000/svg">
<path d="M6.38825 6.87502H7.21875C7.49225 6.87502 7.75456 6.98366 7.94795 7.17706C8.14135 7.37046 8.25 7.63276 8.25 7.90627C8.25 8.17977 8.14135 8.44207 7.94795 8.63547C7.75456 8.82887 7.49225 8.93752 7.21875 8.93752H3.78125C3.50775 8.93752 3.24544 8.82887 3.05205 8.63547C2.85865 8.44207 2.75 8.17977 2.75 7.90627V4.46877C2.75 4.19526 2.85865 3.93296 3.05205 3.73956C3.24544 3.54616 3.50775 3.43752 3.78125 3.43752C4.05475 3.43752 4.31706 3.54616 4.51045 3.73956C4.70385 3.93296 4.8125 4.19526 4.8125 4.46877V5.54264C6.05653 4.13292 7.74477 3.19041 9.59761 2.87119C11.4505 2.55198 13.3568 2.87522 15.0008 3.78737C16.6449 4.69953 17.928 6.14588 18.6378 7.88689C19.3476 9.62791 19.4414 11.5591 18.9038 13.3608C18.3661 15.1624 17.2291 16.7263 15.6812 17.7935C14.1333 18.8607 12.2674 19.3672 10.3923 19.2291C8.51723 19.091 6.74558 18.3166 5.37076 17.0341C3.99594 15.7516 3.10041 14.038 2.8325 12.177C2.79384 11.9061 2.86441 11.6309 3.02867 11.4119C3.19292 11.193 3.43742 11.0483 3.70838 11.0096C3.97933 10.971 4.25454 11.0415 4.47346 11.2058C4.69239 11.3701 4.83709 11.6146 4.87575 11.8855C5.07705 13.2796 5.74787 14.5633 6.77739 15.5246C7.8069 16.4858 9.13353 17.0672 10.5381 17.1725C11.9427 17.2779 13.3412 16.901 14.5026 16.1041C15.664 15.3072 16.5189 14.1379 16.9259 12.7895C17.333 11.4411 17.2679 9.99414 16.7414 8.68771C16.2149 7.38128 15.2585 6.29351 14.0302 5.60411C12.8019 4.91471 11.3752 4.66491 9.98579 4.89599C8.59635 5.12706 7.32729 5.82518 6.38825 6.87502ZM10.6562 6.87502C10.9298 6.87502 11.1921 6.98366 11.3855 7.17706C11.5788 7.37046 11.6875 7.63276 11.6875 7.90627V10.3125H12.7188C12.9923 10.3125 13.2546 10.4212 13.448 10.6146C13.6413 10.808 13.75 11.0703 13.75 11.3438C13.75 11.6173 13.6413 11.8796 13.448 12.073C13.2546 12.2664 12.9923 12.375 12.7188 12.375H10.6562C10.3827 12.375 10.1204 12.2664 9.92705 12.073C9.73365 11.8796 9.625 11.6173 9.625 11.3438V7.90627C9.625 7.63276 9.73365 7.37046 9.92705 7.17706C10.1204 6.98366 10.3827 6.87502 10.6562 6.87502Z" fill="white"/>
</svg>
