<svg width="22" height="22" viewBox="0 0 22 22" fill="none" xmlns="http://www.w3.org/2000/svg">
<path d="M21.1505 9.08635C21.9716 9.08635 22.3144 8.03144 21.6474 7.54517L11.4995 0.163418C11.3546 0.0572411 11.1796 0 10.9999 0C10.8203 0 10.6453 0.0572411 10.5004 0.163418L0.352467 7.54517C-0.314494 8.02878 0.028287 9.08635 0.852024 9.08635H2.49684V19.0243H0.583645C0.466728 19.0243 0.371068 19.12 0.371068 19.2369V20.6187C0.371068 20.7356 0.466728 20.8313 0.583645 20.8313H21.4162C21.5331 20.8313 21.6288 20.7356 21.6288 20.6187V19.2369C21.6288 19.12 21.5331 19.0243 21.4162 19.0243H19.503V9.08635H21.1505ZM7.51898 19.0243H4.41004V9.08635H7.51898V19.0243ZM12.5411 19.0243H9.43218V9.08635H12.5411V19.0243ZM17.5898 19.0243H14.4543V9.08635H17.5898V19.0243Z" fill="white"/>
</svg>
