<svg width="23" height="23" viewBox="0 0 23 23" fill="none" xmlns="http://www.w3.org/2000/svg">
<path d="M6.37268 11.2685C6.37268 14.2596 8.80584 16.6928 11.7969 16.6928C14.788 16.6928 17.2212 14.2596 17.2212 11.2685C17.2212 8.27746 14.788 5.84429 11.7969 5.84429C8.80584 5.84429 6.37268 8.27746 6.37268 11.2685ZM10.7114 18.8519H12.8781V22.1019H10.7114V18.8519ZM10.7114 0.435211H12.8781V3.68521H10.7114V0.435211ZM0.961426 10.1852H4.21143V12.3519H0.961426V10.1852ZM19.3781 10.1852H22.6281V12.3519H19.3781V10.1852ZM4.90151 19.6947L3.36968 18.1629L5.66743 15.8651L7.19926 17.397L4.90151 19.6947ZM16.3903 5.14121L18.6891 2.84238L20.2209 4.37421L17.9221 6.67304L16.3903 5.14121ZM5.66743 6.67413L3.36968 4.37529L4.90259 2.84346L7.19926 5.14229L5.66743 6.67413ZM20.2209 18.1629L18.6891 19.6947L16.3903 17.3959L17.9221 15.864L20.2209 18.1629Z" fill="#FFC100"/>
</svg>
