<svg width="21" height="21" viewBox="0 0 21 21" fill="none" xmlns="http://www.w3.org/2000/svg">
<g clip-path="url(#clip0_2_308)">
<path d="M9.12854 19.313C9.4785 19.305 9.81434 19.1734 10.0766 18.9416C10.339 18.7098 10.5108 18.3927 10.5619 18.0464H7.63965C7.69213 18.4021 7.87205 18.7266 8.14593 18.9596C8.4198 19.1926 8.76899 19.3182 9.12854 19.313Z" fill="white"/>
<path d="M17.3783 15.8963L17.1894 15.7297C16.6535 15.2522 16.1845 14.7047 15.795 14.1019C15.3695 13.27 15.1146 12.3615 15.045 11.4297V8.68523C15.0427 8.35187 15.013 8.01926 14.9561 7.69078C14.015 7.49736 13.1697 6.98468 12.5633 6.23955C11.9569 5.49442 11.6266 4.56261 11.6283 3.60189V3.25189C11.0483 2.96644 10.4251 2.77873 9.78387 2.69634V1.99634C9.78387 1.79963 9.70573 1.61099 9.56664 1.4719C9.42755 1.33281 9.2389 1.25467 9.0422 1.25467C8.8455 1.25467 8.65685 1.33281 8.51776 1.4719C8.37867 1.61099 8.30053 1.79963 8.30053 1.99634V2.72411C6.86482 2.92664 5.55085 3.64175 4.60121 4.73741C3.65157 5.83307 3.13038 7.2353 3.13387 8.68523V11.4297C3.06428 12.3615 2.8093 13.27 2.38387 14.1019C2.00102 14.7032 1.53953 15.2506 1.01164 15.7297L0.822754 15.8963V17.463H17.3783V15.8963Z" fill="white"/>
<path d="M16.6284 6.37962C18.1625 6.37962 19.4061 5.13597 19.4061 3.60184C19.4061 2.06772 18.1625 0.824066 16.6284 0.824066C15.0942 0.824066 13.8506 2.06772 13.8506 3.60184C13.8506 5.13597 15.0942 6.37962 16.6284 6.37962Z" fill="#F5110A"/>
</g>
<defs>
<clipPath id="clip0_2_308">
<rect width="20" height="20" fill="white" transform="translate(0.794922 0.268555)"/>
</clipPath>
</defs>
</svg>
