<svg width="25" height="22" viewBox="0 0 25 22" fill="none" xmlns="http://www.w3.org/2000/svg">
<path d="M12.0961 13.4148C12.013 13.4148 11.9296 13.3952 11.8525 13.3559L0.332455 7.518C0.129754 7.41503 0.000179846 7.19428 0.000179846 6.95129C0.000179846 6.70831 0.129754 6.48752 0.332455 6.38436L11.8525 0.546973C12.0071 0.46888 12.1851 0.46888 12.3398 0.546973L23.8598 6.38436C24.0619 6.48733 24.1917 6.70809 24.1917 6.95129C24.1917 7.1945 24.0621 7.41506 23.8598 7.518L12.3398 13.3559C12.2627 13.3952 12.1793 13.4146 12.0961 13.4146V13.4148ZM1.93797 6.95144L12.0961 12.0989L22.2543 6.95144L12.0961 1.8044L1.93797 6.95144ZM12.3399 17.5261L23.8599 11.6887C24.148 11.5428 24.2729 11.1708 24.1383 10.8571C24.004 10.5443 23.6626 10.4084 23.3727 10.555L12.096 16.269L0.819762 10.555C0.531679 10.4095 0.188938 10.5443 0.0541439 10.8571C-0.0802544 11.1704 0.0440994 11.5425 0.332583 11.6887L11.8526 17.5261C11.9297 17.5651 12.0131 17.585 12.0963 17.585C12.1796 17.5848 12.2626 17.5651 12.3398 17.5261H12.3399ZM12.3399 21.6959L23.8599 15.8585C24.148 15.7119 24.2729 15.3404 24.1383 15.0267C24.004 14.7139 23.6626 14.5775 23.3727 14.725L12.096 20.439L0.819762 14.725C0.531679 14.5795 0.188938 14.7141 0.0541439 15.0267C-0.0802544 15.3404 0.0440994 15.7119 0.332583 15.8585L11.8526 21.6959C11.9295 21.7353 12.0129 21.7545 12.0961 21.7545C12.1792 21.7545 12.2626 21.7353 12.3398 21.6961L12.3399 21.6959ZM4.52997 6.95189L12.0961 10.8485L19.9503 6.95189L12.0961 3.05564L4.52997 6.95189Z" fill="white"/>
</svg>
