<svg width="22" height="22" viewBox="0 0 22 22" fill="none" xmlns="http://www.w3.org/2000/svg">
<path d="M14.0149 13.4539C13.8804 13.4099 13.03 13.0266 13.5614 11.4113H13.5538C14.9389 9.98463 15.9975 7.68902 15.9975 5.42894C15.9975 1.95379 13.6866 0.132019 11.0009 0.132019C8.31354 0.132019 6.01539 1.95294 6.01539 5.42894C6.01539 7.69833 7.068 10.0032 8.46162 11.4265C9.00485 12.8514 8.03347 13.3802 7.83039 13.4547C5.01777 14.4718 1.71777 16.3257 1.71777 18.1559V18.8422C1.71777 21.3358 6.5527 21.9027 11.0272 21.9027C15.5084 21.9027 20.2824 21.3358 20.2824 18.8422V18.1559C20.2824 16.2707 16.9663 14.4312 14.0149 13.4539Z" fill="white"/>
</svg>
