<svg width="22" height="22" viewBox="0 0 22 22" fill="none" xmlns="http://www.w3.org/2000/svg">
<path d="M11.0108 8.39182C10.3685 8.39182 9.7669 8.64104 9.31143 9.09651C8.85811 9.55198 8.60675 10.1535 8.60675 10.7959C8.60675 11.4383 8.85811 12.0399 9.31143 12.4953C9.7669 12.9487 10.3685 13.2 11.0108 13.2C11.6532 13.2 12.2548 12.9487 12.7103 12.4953C13.1636 12.0399 13.415 11.4383 13.415 10.7959C13.415 10.1535 13.1636 9.55198 12.7103 9.09651C12.4878 8.87234 12.223 8.6946 11.9313 8.57363C11.6395 8.45266 11.3267 8.39086 11.0108 8.39182ZM19.8689 13.4514L18.4638 12.2504C18.5304 11.8422 18.5648 11.4254 18.5648 11.0108C18.5648 10.5961 18.5304 10.1772 18.4638 9.77112L19.8689 8.57014C19.975 8.47928 20.051 8.35826 20.0867 8.22317C20.1223 8.08808 20.1161 7.94533 20.0687 7.81389L20.0493 7.75804C19.6626 6.67671 19.0832 5.67438 18.3392 4.79964L18.3005 4.75452C18.2101 4.64828 18.0897 4.57191 17.9551 4.53548C17.8205 4.49904 17.678 4.50425 17.5464 4.55042L15.8019 5.17131C15.1573 4.6428 14.4398 4.226 13.662 3.93596L13.3247 2.11194C13.2993 1.97453 13.2326 1.84812 13.1336 1.74949C13.0346 1.65087 12.9079 1.5847 12.7704 1.55979L12.7124 1.54905C11.5952 1.34709 10.4179 1.34709 9.30069 1.54905L9.24268 1.55979C9.10518 1.5847 8.9785 1.65087 8.8795 1.74949C8.78049 1.84812 8.71383 1.97453 8.68839 2.11194L8.34893 3.94456C7.57856 4.23691 6.86091 4.65269 6.22413 5.17561L4.4667 4.55042C4.33515 4.50389 4.19254 4.49849 4.05785 4.53495C3.92315 4.5714 3.80273 4.64799 3.7126 4.75452L3.67393 4.79964C2.9312 5.67532 2.35193 6.67739 1.96377 7.75804L1.94444 7.81389C1.84776 8.08245 1.92725 8.38323 2.14424 8.57014L3.56651 9.78401C3.49991 10.1879 3.46768 10.6004 3.46768 11.0086C3.46768 11.4211 3.49991 11.8336 3.56651 12.2332L2.14854 13.4471C2.0424 13.538 1.96643 13.659 1.93074 13.7941C1.89505 13.9292 1.90133 14.0719 1.94873 14.2034L1.96807 14.2592C2.35694 15.3399 2.93057 16.3389 3.67823 17.2176L3.7169 17.2627C3.80725 17.369 3.92767 17.4453 4.06229 17.4818C4.1969 17.5182 4.3394 17.513 4.471 17.4668L6.22842 16.8416C6.86866 17.368 7.58194 17.7848 8.35323 18.0727L8.69268 19.9053C8.71813 20.0427 8.78479 20.1691 8.88379 20.2678C8.9828 20.3664 9.10947 20.4325 9.24698 20.4575L9.30499 20.4682C10.4332 20.6712 11.5885 20.6712 12.7167 20.4682L12.7747 20.4575C12.9122 20.4325 13.0389 20.3664 13.1379 20.2678C13.2369 20.1691 13.3036 20.0427 13.329 19.9053L13.6663 18.0813C14.4441 17.7891 15.1616 17.3744 15.8062 16.8459L17.5507 17.4668C17.6823 17.5134 17.8249 17.5188 17.9596 17.4823C18.0942 17.4458 18.2147 17.3693 18.3048 17.2627L18.3435 17.2176C19.0911 16.3346 19.6648 15.3399 20.0536 14.2592L20.073 14.2034C20.1653 13.9369 20.0858 13.6383 19.8689 13.4514ZM11.0108 14.5729C8.92471 14.5729 7.23389 12.8821 7.23389 10.7959C7.23389 8.70979 8.92471 7.01897 11.0108 7.01897C13.097 7.01897 14.7878 8.70979 14.7878 10.7959C14.7878 12.8821 13.097 14.5729 11.0108 14.5729Z" fill="white"/>
</svg>
