<svg width="16" height="12" viewBox="0 0 16 12" fill="none" xmlns="http://www.w3.org/2000/svg">
<path d="M1.5 0C1.10218 0 0.720644 0.158035 0.43934 0.43934C0.158035 0.720644 0 1.10218 0 1.5V3.5C0 3.89782 0.158035 4.27936 0.43934 4.56066C0.720644 4.84196 1.10218 5 1.5 5H3.5C3.89782 5 4.27936 4.84196 4.56066 4.56066C4.84196 4.27936 5 3.89782 5 3.5V1.5C5 1.10218 4.84196 0.720644 4.56066 0.43934C4.27936 0.158035 3.89782 0 3.5 0H1.5ZM7.5 1C7.36739 1 7.24021 1.05268 7.14645 1.14645C7.05268 1.24021 7 1.36739 7 1.5C7 1.63261 7.05268 1.75979 7.14645 1.85355C7.24021 1.94732 7.36739 2 7.5 2H15.5C15.6326 2 15.7598 1.94732 15.8536 1.85355C15.9473 1.75979 16 1.63261 16 1.5C16 1.36739 15.9473 1.24021 15.8536 1.14645C15.7598 1.05268 15.6326 1 15.5 1H7.5ZM7.5 3C7.36739 3 7.24021 3.05268 7.14645 3.14645C7.05268 3.24021 7 3.36739 7 3.5C7 3.63261 7.05268 3.75979 7.14645 3.85355C7.24021 3.94732 7.36739 4 7.5 4H13.5C13.6326 4 13.7598 3.94732 13.8536 3.85355C13.9473 3.75979 14 3.63261 14 3.5C14 3.36739 13.9473 3.24021 13.8536 3.14645C13.7598 3.05268 13.6326 3 13.5 3H7.5ZM1.5 7C1.10218 7 0.720644 7.15804 0.43934 7.43934C0.158035 7.72064 0 8.10218 0 8.5V10.5C0 10.8978 0.158035 11.2794 0.43934 11.5607C0.720644 11.842 1.10218 12 1.5 12H3.5C3.89782 12 4.27936 11.842 4.56066 11.5607C4.84196 11.2794 5 10.8978 5 10.5V8.5C5 8.10218 4.84196 7.72064 4.56066 7.43934C4.27936 7.15804 3.89782 7 3.5 7H1.5ZM7.5 8C7.36739 8 7.24021 8.05268 7.14645 8.14645C7.05268 8.24021 7 8.36739 7 8.5C7 8.63261 7.05268 8.75979 7.14645 8.85355C7.24021 8.94732 7.36739 9 7.5 9H15.5C15.6326 9 15.7598 8.94732 15.8536 8.85355C15.9473 8.75979 16 8.63261 16 8.5C16 8.36739 15.9473 8.24021 15.8536 8.14645C15.7598 8.05268 15.6326 8 15.5 8H7.5ZM7.5 10C7.36739 10 7.24021 10.0527 7.14645 10.1464C7.05268 10.2402 7 10.3674 7 10.5C7 10.6326 7.05268 10.7598 7.14645 10.8536C7.24021 10.9473 7.36739 11 7.5 11H13.5C13.6326 11 13.7598 10.9473 13.8536 10.8536C13.9473 10.7598 14 10.6326 14 10.5C14 10.3674 13.9473 10.2402 13.8536 10.1464C13.7598 10.0527 13.6326 10 13.5 10H7.5Z" fill="#F8C12C"/>
</svg>
