<svg width="22" height="22" viewBox="0 0 22 22" fill="none" xmlns="http://www.w3.org/2000/svg">
<path d="M20.1302 8.55558H18.9446V5.50003C18.9446 5.33795 18.8802 5.18251 18.7656 5.06791C18.651 4.9533 18.4956 4.88892 18.3335 4.88892H3.66683C3.50475 4.88892 3.34931 4.82453 3.23471 4.70993C3.1201 4.59532 3.05572 4.43988 3.05572 4.27781C3.05572 4.11573 3.1201 3.96029 3.23471 3.84569C3.34931 3.73108 3.50475 3.6667 3.66683 3.6667H18.0891C18.2511 3.6667 18.4066 3.60231 18.5212 3.48771C18.6358 3.3731 18.7002 3.21766 18.7002 3.05558C18.7002 2.89351 18.6358 2.73807 18.5212 2.62346C18.4066 2.50886 18.2511 2.44447 18.0891 2.44447H3.66683C3.43088 2.43961 3.19627 2.48128 2.97643 2.5671C2.75658 2.65293 2.5558 2.78123 2.38555 2.94467C2.2153 3.10811 2.07891 3.30349 1.98419 3.51965C1.88947 3.73581 1.83826 3.96852 1.8335 4.20447V17.0378C1.8343 17.3698 1.90057 17.6983 2.02853 18.0046C2.1565 18.3109 2.34362 18.589 2.5792 18.8228C2.81479 19.0567 3.09419 19.2418 3.40141 19.3676C3.70864 19.4933 4.03765 19.5572 4.36961 19.5556H18.3335C18.4956 19.5556 18.651 19.4912 18.7656 19.3766C18.8802 19.262 18.9446 19.1065 18.9446 18.9445V15.8889H20.1302C20.2073 15.8948 20.2848 15.8848 20.358 15.8596C20.4311 15.8344 20.4983 15.7946 20.5556 15.7425C20.6128 15.6905 20.6587 15.6273 20.6907 15.5568C20.7226 15.4864 20.7398 15.4101 20.7413 15.3328V9.22169C20.7433 9.05375 20.6812 8.89136 20.5677 8.76759C20.4541 8.64383 20.2977 8.56801 20.1302 8.55558ZM19.5557 14.6667H14.3124C13.6861 14.6444 13.0943 14.3744 12.6669 13.9161C12.2395 13.4578 12.0115 12.8486 12.0329 12.2222C12.0115 11.5959 12.2395 10.9867 12.6669 10.5284C13.0943 10.0701 13.6861 9.80011 14.3124 9.77781H19.5557V14.6667Z" fill="white"/>
<path d="M14.6911 13.09C15.1973 13.09 15.6077 12.6796 15.6077 12.1733C15.6077 11.6671 15.1973 11.2567 14.6911 11.2567C14.1848 11.2567 13.7744 11.6671 13.7744 12.1733C13.7744 12.6796 14.1848 13.09 14.6911 13.09Z" fill="white"/>
</svg>
